<?xml version="1.0" encoding="UTF-8" standalone="no"?>
<!-- Created with Inkscape (http://www.inkscape.org/) -->

<svg
   width="210mm"
   height="297mm"
   viewBox="0 0 210 297"
   version="1.1"
   id="svg1"
   xml:space="preserve"
   xmlns:inkscape="http://www.inkscape.org/namespaces/inkscape"
   xmlns:sodipodi="http://sodipodi.sourceforge.net/DTD/sodipodi-0.dtd"
   xmlns="http://www.w3.org/2000/svg"
   xmlns:svg="http://www.w3.org/2000/svg"><sodipodi:namedview
     id="namedview1"
     pagecolor="#ffffff"
     bordercolor="#000000"
     borderopacity="0.25"
     inkscape:showpageshadow="2"
     inkscape:pageopacity="0.0"
     inkscape:pagecheckerboard="0"
     inkscape:deskcolor="#d1d1d1"
     inkscape:document-units="mm"
     inkscape:zoom="1.4765517"
     inkscape:cx="224.84821"
     inkscape:cy="495.74967"
     inkscape:window-width="3440"
     inkscape:window-height="1376"
     inkscape:window-x="0"
     inkscape:window-y="0"
     inkscape:window-maximized="1"
     inkscape:current-layer="g10" /><defs
     id="defs1"><inkscape:path-effect
       effect="bspline"
       id="path-effect109-1"
       is_visible="true"
       lpeversion="1.3"
       weight="33.333333"
       steps="2"
       helper_size="0"
       apply_no_weight="true"
       apply_with_weight="true"
       only_selected="false"
       uniform="false" /></defs><g
     inkscape:groupmode="layer"
     id="layer2"
     inkscape:label="Layer 2"><path
       style="fill:none;stroke:#000000;stroke-width:0.264999"
       d="M 65.587644,76.36942 C 65.063461,72.81076 64.015116,65.693583 63.470535,61.640552 62.925954,57.58752 62.885183,56.598982 63.196322,55.95795 c 0.311139,-0.641031 0.974149,-0.934478 6.508718,-1.781827 5.534569,-0.847349 13.785254,-1.958346 20.929037,-2.890217 7.143783,-0.931872 8.074996,-1.024825 9.434813,-1.525711 1.35982,-0.500886 2.22034,-1.165414 2.527,-2.147163 0.30665,-0.98175 -0.0154,-2.368963 -0.0969,-3.317992 -0.0815,-0.949029 0.0632,-1.521765 0.52651,-1.890911 0.46333,-0.369146 1.24523,-0.534677 3.09169,-0.765668 1.84646,-0.230991 4.41673,-0.492734 7.61646,-0.712424 3.19972,-0.219689 5.84593,-0.310697 7.45781,-0.477998 1.61189,-0.167301 2.18543,-0.414852 2.51423,-0.873731 0.32879,-0.458878 0.33254,-0.984825 0.3363,-1.63507 0.004,-0.650244 0.007,-1.369833 0.50191,-1.727519 0.49475,-0.357686 1.48077,-0.353452 4.42039,-0.352986 2.93961,4.67e-4 7.83242,-0.0028 10.82058,-0.01637 2.98816,-0.01354 4.07119,-0.03732 4.60737,0.331854 0.53619,0.369174 0.52545,1.131264 0.52375,1.802113 -0.002,0.670849 0.006,1.250372 0.36107,1.548017 0.35544,0.297646 1.05894,0.313378 6.41607,0.354279 5.35712,0.0409 15.36737,0.106965 20.82643,0.160122 5.45905,0.05316 6.36664,0.0934 7.28039,0.390717 0.91375,0.297313 1.8336,0.851671 2.73493,1.142449 0.90132,0.290777 1.78407,0.31796 4.36195,0.311019 2.57789,-0.0069 6.85071,-0.04801 9.54365,-0.04649 2.69294,0.0015 3.80585,0.04561 4.57955,0.295504 0.77369,0.24989 1.20813,0.705556 1.42535,1.307816 0.21722,0.602259 0.21722,1.351104 0.21722,11.967305 0,10.616202 0,31.099011 0,42.137462 0,11.038451 0,12.632141 0,14.125991 0,1.49385 0,2.88779 -0.51856,4.80769 -0.51857,1.9199 -1.55566,4.36564 -2.3521,6.11905 -0.79645,1.75341 -1.35221,2.81442 -2.53073,2.96554 -1.17852,0.15113 -2.97971,-0.60761 -6.47,-2.16651 -3.49029,-1.55889 -8.66944,-3.91783 -14.20094,-5.63934 -5.5315,-1.72151 -11.41502,-2.80549 -17.48981,-3.27622 -6.07479,-0.47072 -12.34049,-0.32816 -18.59202,0.0359 -6.25153,0.36405 -12.48852,0.94955 -16.10803,1.29533 -3.61951,0.34579 -4.62137,0.45183 -5.18589,-0.16917 -0.56451,-0.62099 -0.69167,-1.96897 -0.89175,-3.89406 -0.20007,-1.9251 -0.47305,-4.42718 -0.84517,-5.89082 -0.37211,-1.46364 -0.84333,-1.88877 -1.4507,-2.12687 -0.60737,-0.23809 -1.35083,-0.28913 -8.51581,0.6688 -7.16498,0.95794 -20.750899,2.92477 -27.90967,3.93807 -7.15877,1.0133 -7.8901,1.07303 -8.354817,0.63992 -0.464718,-0.43311 -0.662804,-1.35903 -1.474132,-6.28288 C 68.961124,97.771082 67.536615,88.849676 66.824346,84.388882 66.112077,79.928087 66.111827,79.92808 65.587644,76.36942 Z"
       id="path109"
       sodipodi:nodetypes="scccccsccccccccccccccccccccccssccccccccccccccccss"
       inkscape:original-d="m 66.111827,79.92808 c -1.048366,-7.11732 -2.096711,-14.234497 -3.145099,-21.351962 -0.04077,-0.988598 -0.08155,-1.977136 -0.122319,-2.965734 0.663052,-0.293465 1.326062,-0.586912 1.989114,-0.880377 10.406086,-1.401233 18.656771,-2.51223 31.217582,-4.203608 1.726755,-0.172365 2.657968,-0.265319 4.291535,-0.428381 1.08607,-0.83871 1.94659,-1.503237 2.85322,-2.203373 -0.29332,-1.263362 -0.61539,-2.650576 -0.92309,-3.975884 0.14469,-0.57275 0.28938,-1.145486 0.43407,-1.718232 0.78197,-0.165545 1.56387,-0.331078 2.34583,-0.496621 2.91096,-0.296438 5.48123,-0.558182 8.73271,-0.889296 3.14797,-0.108264 5.79418,-0.199272 8.45472,-0.290773 0.56323,-0.2431 1.13677,-0.490654 1.78984,-0.772529 0.005,-0.635877 0.008,-1.161829 0.0124,-1.742734 0.003,-0.719584 0.007,-1.43917 0.0102,-2.158776 0.98609,0.0042 1.97211,0.0085 2.95819,0.0127 4.89315,-0.0033 9.78596,-0.0066 14.67916,-0.0099 1.08312,-0.02378 2.16615,-0.04756 3.24925,-0.07134 -0.0107,0.762128 -0.0215,1.524218 -0.0322,2.286358 0.007,0.579562 0.0147,1.159081 0.022,1.738638 0.70354,0.01573 1.40704,0.03147 2.11059,0.0472 10.0107,0.06607 20.02095,0.132132 30.03142,0.198198 0.90764,0.04025 1.81523,0.0805 2.72285,0.120742 0.91988,0.554382 1.83973,1.108739 2.7596,1.663108 0.88278,0.02718 1.76553,0.05436 2.6483,0.08155 4.273,-0.04107 8.54582,-0.08213 12.81873,-0.123193 1.11297,0.0441 2.22588,0.08819 3.33882,0.132292 0.43445,0.455684 0.86889,0.911347 1.30333,1.367022 0,0.748846 0,1.497691 0,2.246535 0,20.483559 0,40.966368 0,61.44957 0,1.5937 0,3.18739 0,4.78109 0,1.394 0,2.78794 0,4.18192 -1.03713,2.44582 -2.07422,4.89156 -3.11133,7.33734 -0.55578,1.06104 -1.11154,2.12205 -1.66731,3.18307 -1.80127,-0.75877 -3.60246,-1.51751 -5.4037,-2.27627 -5.17934,-2.35904 -10.35849,-4.71797 -15.53773,-7.07696 -5.88376,-1.08403 -11.76728,-2.16801 -17.65092,-3.25202 -6.26594,0.14256 -12.53164,0.28512 -18.79745,0.42768 -6.23725,0.58553 -12.47424,1.17103 -18.71136,1.75655 -1.0019,0.10605 -2.00376,0.21209 -3.00563,0.31813 -0.12717,-1.34803 -0.25432,-2.69601 -0.38148,-4.04402 -0.27299,-2.50218 -0.54597,-5.00426 -0.81896,-7.50639 -0.47124,-0.42515 -0.94246,-0.85028 -1.4137,-1.27543 -0.7435,-0.051 -1.48696,-0.10208 -2.23047,-0.15312 -13.58645,1.96691 -27.172369,3.93374 -40.758557,5.90061 -0.731356,0.0597 -1.462683,0.11946 -2.194025,0.17919 -0.198094,-0.92595 -0.39618,-1.85187 -0.594268,-2.7778 -1.424566,-8.921768 -2.849075,-17.843174 -4.273613,-26.764763 z"
       inkscape:path-effect="#path-effect109-1"
       transform="translate(-40.893069,40.392513)" /></g></svg>
