<?xml version="1.0" encoding="UTF-8" standalone="no"?>
<svg
   version="1.1"
   width="297.0022mm"
   height="210.0072mm"
   viewBox="0 0 297.0022 210.0072"
   id="svg11308"
   xmlns="http://www.w3.org/2000/svg"
   xmlns:svg="http://www.w3.org/2000/svg">
  <defs
     id="defs11308" />
  <title
     id="title1">SVG Image created as sighol-split-brd.svg date 2024/09/22 20:51:43 </title>
  <desc
     id="desc1">Image generated by PCBNEW </desc>
  <g
     id="layer5">
    <path
       style="fill:none;stroke:#000000;stroke-width:0.5;stroke-dasharray:none;stroke-opacity:1"
       d="m 53.608745,109.29432 c -1.044123,-8.48559 -2.846269,-23.610353 -3.839694,-31.831793 -0.993424,-8.22144 -1.17812,-9.539502 -0.768244,-10.275815 0.409876,-0.736313 1.414287,-0.890847 6.928993,-1.582848 5.514706,-0.692001 15.539091,-1.921391 21.22268,-2.687186 5.683589,-0.765795 7.025716,-1.067905 7.660232,-2.03422 0.634516,-0.966316 0.561346,-2.596725 0.618176,-4.109069 0.05683,-1.512343 0.243651,-2.906447 1.169398,-3.904767 0.925746,-0.99832 2.590308,-1.600741 5.32733,-1.764896 2.737022,-0.164154 6.546179,0.109979 8.774314,-0.300222 2.22813,-0.410201 2.875,-1.504713 4.11407,-2.627783 1.23907,-1.123071 3.07022,-2.274611 4.43002,-2.835911 1.35979,-0.561301 2.24805,-0.532289 4.71763,-0.524039 2.46959,0.0083 6.52021,-0.0043 9.04759,0.152657 2.52737,0.156919 3.53126,0.483262 4.70144,1.032237 1.17018,0.548974 2.50657,1.320541 3.54991,1.706332 1.04333,0.385792 1.79355,0.385792 3.66537,0.385792 1.87181,0 4.86509,0 6.80026,0 1.93517,0 2.81213,0 3.73868,0.488059 0.92655,0.488059 1.90263,1.464138 2.8281,1.952188 0.92547,0.48805 1.80027,0.48805 3.74469,0.48805 1.94442,0 4.9583,0 6.88009,0 1.92179,0 2.75138,0 3.77128,0.605094 1.0199,0.605093 2.23004,1.815231 3.27178,2.856965 1.04173,1.041733 1.91499,1.914996 3.01171,2.351639 1.09671,0.436644 2.4168,0.436644 5.15541,0.436644 2.73861,0 6.89554,0 9.5684,0 2.67286,0 3.8615,0 4.45584,1.096235 0.59434,1.096235 0.59434,3.288617 0.59434,13.953047 0,10.664429 0,29.8001 0,40.24493 0,10.44483 0,12.19836 0,13.60474 0,1.40638 0,2.46552 -0.13144,3.22276 -0.13144,0.75724 -0.39431,1.21254 -1.25831,2.70903 -0.864,1.49649 -2.32907,4.03407 -3.29366,5.70478 -0.96459,1.67072 -1.42864,2.47449 -2.26752,2.62298 -0.83887,0.14849 -2.0525,-0.35831 -5.26032,-1.91217 -3.20782,-1.55387 -8.40959,-4.1547 -14.04861,-6.00962 -5.63902,-1.85492 -11.71493,-2.96383 -17.91725,-3.50326 -6.20232,-0.53943 -12.53067,-0.50937 -18.78378,-0.24344 -6.2531,0.26592 -12.43058,0.76769 -16.10669,1.04101 -3.67611,0.27333 -4.85066,0.3182 -5.55068,-0.33516 -0.70003,-0.65337 -0.92549,-2.00493 -1.20317,-3.73883 -0.27769,-1.7339 -0.60758,-3.85003 -1.30069,-5.37385 -0.69311,-1.52382 -1.749383,-2.45526 -3.119482,-3.04225 -1.370099,-0.58699 -3.053935,-0.82952 -9.249023,-0.21559 -6.195087,0.61394 -16.900734,2.08425 -23.324883,2.95633 -6.424148,0.87209 -8.562777,1.14543 -9.778638,0.35792 -1.215861,-0.78752 -1.501525,-2.63111 -2.545649,-11.1167 z"
       id="path11309" />
  </g>
</svg>
